<svg width="371" height="94" viewBox="0 0 371 94" fill="none" xmlns="http://www.w3.org/2000/svg">
<path fill-rule="evenodd" clip-rule="evenodd" d="M10.0248 52.8193C10.1572 52.9245 10.2932 53.0281 10.4328 53.13L31.4325 68.4602C36.7853 72.3679 45.464 72.3679 50.8168 68.4602L71.8164 53.13C71.9561 53.0281 72.0921 52.9245 72.2244 52.8193C77.1656 56.7452 77.0296 62.8538 71.8164 66.6596L50.8168 81.9898C45.464 85.8974 36.7853 85.8974 31.4325 81.9898L10.4328 66.6596C5.21965 62.8538 5.08365 56.7452 10.0248 52.8193Z" fill="#BDEE63"/>
<rect width="50" height="50" rx="12" transform="matrix(0.807679 -0.589623 0.807679 0.589623 0.740723 32.8196)" fill="white"/>
<path d="M115.776 67.4641V26.617H129.547C133.904 26.617 137.678 27.4923 140.868 29.2429C144.058 30.9935 146.528 33.4054 148.279 36.4787C150.068 39.552 150.963 43.0726 150.963 47.0406C150.963 51.0086 150.068 54.5292 148.279 57.6025C146.528 60.6757 144.058 63.0876 140.868 64.8382C137.678 66.5888 133.904 67.4641 129.547 67.4641H115.776ZM124.121 60.1116H129.547C132.076 60.1116 134.313 59.5865 136.258 58.5361C138.242 57.4858 139.798 55.988 140.926 54.0429C142.054 52.0589 142.618 49.7248 142.618 47.0406C142.618 44.3174 142.054 41.9833 140.926 40.0382C139.798 38.0931 138.242 36.5954 136.258 35.545C134.313 34.4947 132.076 33.9695 129.547 33.9695H124.121V60.1116ZM171.51 67.4641C168.126 67.4641 165.169 66.8222 162.641 65.5385C160.151 64.2158 158.206 62.4263 156.806 60.17C155.444 57.9137 154.763 55.3851 154.763 52.5841C154.763 49.4331 155.405 46.6905 156.689 44.3563C157.973 42.0222 159.723 40.2133 161.941 38.9295C164.158 37.6458 166.667 37.0039 169.468 37.0039C172.814 37.0039 175.517 37.7041 177.579 39.1046C179.68 40.5051 181.217 42.3918 182.189 44.7648C183.162 47.0989 183.648 49.7054 183.648 52.5841C183.648 52.9731 183.628 53.44 183.59 53.9846C183.551 54.4903 183.492 54.8793 183.414 55.1516H163.283C163.594 56.3576 164.119 57.3691 164.858 58.186C165.636 59.0029 166.589 59.6254 167.718 60.0533C168.885 60.4423 170.188 60.6368 171.627 60.6368H179.913V67.4641H171.51ZM163.224 49.7832H175.654C175.576 49.044 175.44 48.3632 175.245 47.7408C175.051 47.0795 174.778 46.496 174.428 45.9902C174.078 45.4845 173.67 45.0566 173.203 44.7065C172.736 44.3563 172.191 44.084 171.569 43.8895C170.946 43.695 170.266 43.5978 169.526 43.5978C168.554 43.5978 167.679 43.7728 166.901 44.1229C166.161 44.4731 165.539 44.9399 165.033 45.5234C164.528 46.1069 164.119 46.7683 163.808 47.5074C163.536 48.2465 163.341 49.0051 163.224 49.7832ZM204.685 37.0039C207.214 37.0039 209.451 37.4123 211.396 38.2293C213.341 39.0073 214.975 40.1355 216.298 41.6138C217.62 43.0531 218.632 44.7648 219.332 46.7488C220.032 48.6939 220.382 50.8335 220.382 53.1676C220.382 56.0853 219.779 58.6723 218.573 60.9286C217.406 63.1849 215.753 64.9549 213.613 66.2387C211.474 67.5225 208.945 68.1643 206.028 68.1643C204.783 68.1643 203.577 67.9893 202.41 67.6392C201.282 67.2891 200.251 66.7833 199.317 66.122C198.422 65.4607 197.664 64.6826 197.041 63.7879H196.983V80.3018H188.989V53.1676C188.989 49.861 189.63 47.0017 190.914 44.5898C192.198 42.1778 194.007 40.3105 196.341 38.9879C198.714 37.6652 201.496 37.0039 204.685 37.0039ZM204.685 43.8312C203.129 43.8312 201.768 44.2202 200.601 44.9982C199.473 45.7763 198.597 46.8266 197.975 48.1493C197.391 49.472 197.1 50.9502 197.1 52.5841C197.1 54.218 197.391 55.6963 197.975 57.0189C198.597 58.3416 199.473 59.392 200.601 60.17C201.768 60.948 203.129 61.3371 204.685 61.3371C206.28 61.3371 207.642 60.948 208.77 60.17C209.898 59.392 210.754 58.3416 211.338 57.0189C211.96 55.6963 212.271 54.218 212.271 52.5841C212.271 50.9502 211.96 49.472 211.338 48.1493C210.754 46.8266 209.898 45.7763 208.77 44.9982C207.642 44.2202 206.28 43.8312 204.685 43.8312ZM226.323 67.4641V60.6368H240.853C241.32 60.6368 241.729 60.5396 242.079 60.3451C242.468 60.1505 242.76 59.8782 242.954 59.5281C243.187 59.178 243.304 58.789 243.304 58.3611C243.304 57.8942 243.187 57.4858 242.954 57.1356C242.76 56.7855 242.468 56.5132 242.079 56.3187C241.729 56.0853 241.32 55.9686 240.853 55.9686H235.251C233.345 55.9686 231.614 55.6768 230.058 55.0933C228.541 54.4709 227.315 53.4983 226.382 52.1756C225.487 50.8141 225.04 49.044 225.04 46.8655C225.04 45.1927 225.448 43.6756 226.265 42.314C227.121 40.9135 228.249 39.8048 229.65 38.9879C231.089 38.132 232.665 37.7041 234.376 37.7041H248.323V44.5314H235.135C234.551 44.5314 234.026 44.7259 233.559 45.1149C233.131 45.504 232.917 46.0097 232.917 46.6321C232.917 47.2545 233.131 47.7797 233.559 48.2076C233.987 48.5967 234.512 48.7912 235.135 48.7912H240.737C242.876 48.7912 244.724 49.1218 246.28 49.7832C247.836 50.4056 249.042 51.3976 249.898 52.7592C250.754 54.1207 251.182 55.9102 251.182 58.1276C251.182 59.8393 250.754 61.4149 249.898 62.8542C249.042 64.2547 247.895 65.3829 246.455 66.2387C245.016 67.0556 243.401 67.4641 241.612 67.4641H226.323ZM257.726 67.4641V26.617H266.071V43.0142H283.927V26.617H292.271V67.4641H283.927V50.3667H266.071V67.4641H257.726ZM314.704 68.1643C311.669 68.1643 309.063 67.5614 306.884 66.3554C304.706 65.1494 303.033 63.535 301.866 61.5121C300.738 59.4892 300.174 57.2523 300.174 54.8015V37.7041H308.168V54.8015C308.168 56.0075 308.46 57.1162 309.043 58.1276C309.627 59.1002 310.405 59.8782 311.377 60.4618C312.389 61.0453 313.498 61.3371 314.704 61.3371C315.91 61.3371 316.999 61.0453 317.971 60.4618C318.983 59.8782 319.78 59.1002 320.364 58.1276C320.947 57.1162 321.239 56.0075 321.239 54.8015V37.7041H329.233V54.8015C329.233 57.2523 328.65 59.4892 327.483 61.5121C326.355 63.535 324.701 65.1494 322.523 66.3554C320.383 67.5614 317.777 68.1643 314.704 68.1643ZM352.22 68.1643C349.03 68.1643 346.249 67.503 343.876 66.1803C341.542 64.8577 339.733 62.9904 338.449 60.5785C337.165 58.1276 336.523 55.2683 336.523 52.0006V24.8665H344.518V41.3803H344.576C345.199 40.4856 345.957 39.7076 346.852 39.0462C347.786 38.3849 348.816 37.8792 349.945 37.5291C351.112 37.1789 352.318 37.0039 353.563 37.0039C356.48 37.0039 359.009 37.6458 361.148 38.9295C363.288 40.2133 364.941 41.9833 366.108 44.2396C367.314 46.4571 367.917 49.044 367.917 52.0006C367.917 54.3347 367.567 56.4938 366.867 58.4778C366.167 60.4229 365.155 62.1345 363.833 63.6128C362.51 65.0522 360.876 66.1803 358.931 66.9973C356.986 67.7753 354.749 68.1643 352.22 68.1643ZM352.22 61.3371C353.815 61.3371 355.177 60.948 356.305 60.17C357.433 59.392 358.289 58.3416 358.873 57.0189C359.495 55.6963 359.806 54.218 359.806 52.5841C359.806 50.9502 359.495 49.472 358.873 48.1493C358.289 46.8266 357.433 45.7763 356.305 44.9982C355.177 44.2202 353.815 43.8312 352.22 43.8312C350.664 43.8312 349.303 44.2202 348.136 44.9982C347.008 45.7763 346.132 46.8266 345.51 48.1493C344.926 49.472 344.635 50.9502 344.635 52.5841C344.635 54.218 344.926 55.6963 345.51 57.0189C346.132 58.3416 347.008 59.392 348.136 60.17C349.303 60.948 350.664 61.3371 352.22 61.3371Z" fill="white"/>
</svg>
